<svg preserveAspectRatio="none" overflow="visible" style="display: block;" width="93" height="28" viewBox="0 0 93 28" fill="none" xmlns="http://www.w3.org/2000/svg">
<g id="amazon" clip-path="url(#clip0_0_4)">
<path id="path8" d="M57.695 21.8971C52.2905 25.8772 44.4571 28 37.7123 28C28.2561 28 19.7417 24.5058 13.3012 18.6944C12.7947 18.2378 13.2487 17.6145 13.8555 17.9709C20.8056 22.0112 29.4003 24.4425 38.279 24.4425C44.2656 24.4425 50.8529 23.2053 56.909 20.6367C57.8247 20.2479 58.589 21.2353 57.695 21.8986" fill="#1D1D1B"/>
<path id="path10" d="M59.9417 19.3285C59.253 18.4461 55.3757 18.912 53.6339 19.1187C53.1043 19.1835 53.0224 18.7222 53.4996 18.3905C56.5878 16.2184 61.6572 16.8463 62.2471 17.5729C62.8385 18.3057 62.0926 23.3812 59.1912 25.8032C58.7465 26.175 58.3203 25.9775 58.5195 25.4839C59.1711 23.8579 60.6334 20.214 59.9401 19.3285" fill="#1D1D1B"/>
<path id="path12" d="M53.7559 3.05763V0.945675C53.7559 0.626336 53.9983 0.411901 54.2901 0.411901H63.751C64.0552 0.411901 64.2977 0.630964 64.2977 0.945675V2.75372C64.293 3.05763 64.0383 3.4541 63.5858 4.08044L58.6832 11.0735C60.5053 11.0288 62.4277 11.3003 64.0799 12.2305C64.4521 12.4403 64.554 12.7489 64.5818 13.0512V15.3036C64.5818 15.6106 64.2421 15.9716 63.8854 15.7849C60.9747 14.2607 57.1082 14.0941 53.8902 15.8003C53.5629 15.9777 53.2185 15.6229 53.2185 15.3144V13.1747C53.2185 12.8306 53.2231 12.2444 53.5659 11.723L59.2453 3.58523H54.3025C53.9983 3.58523 53.7559 3.3708 53.7559 3.05609" fill="#1D1D1B"/>
<path id="path14" d="M19.2445 16.2307H16.3663C16.0914 16.2107 15.8721 16.004 15.8521 15.7417V0.9827C15.8521 0.688044 16.0991 0.453554 16.4064 0.453554H19.0901C19.3696 0.465895 19.592 0.680331 19.612 0.947218V2.87713H19.6645C20.3656 1.01201 21.6812 0.143471 23.4538 0.143471C25.2265 0.143471 26.38 1.01355 27.1906 2.87713C27.887 1.01201 29.4698 0.143471 31.1652 0.143471C32.3712 0.143471 33.6914 0.64022 34.4975 1.75714C35.4085 2.99901 35.2217 4.80242 35.2217 6.38369L35.217 15.6985C35.217 15.9932 34.97 16.2323 34.6627 16.2323H31.789C31.5018 16.2122 31.2702 15.9808 31.2702 15.6985V7.87703C31.2702 7.25377 31.3274 5.70182 31.1899 5.11096C30.9753 4.12055 30.3314 3.84132 29.4976 3.84132C28.8012 3.84132 28.0723 4.30568 27.7774 5.0508C27.4825 5.79438 27.5103 7.04088 27.5103 7.87857V15.7001C27.5103 15.9947 27.2632 16.2338 26.9559 16.2338H24.0823C23.7904 16.2138 23.5635 15.9824 23.5635 15.7001L23.5588 7.87857C23.5588 6.23251 23.8306 3.81047 21.7862 3.81047C19.7417 3.81047 19.7989 6.17234 19.7989 7.87857V15.7001C19.7989 15.9947 19.5518 16.2338 19.2445 16.2338" fill="#1D1D1B"/>
<path id="path16" d="M72.443 0.141928C76.714 0.141928 79.0256 3.80584 79.0256 8.46479C79.0256 13.1237 76.4716 16.5377 72.443 16.5377C68.4143 16.5377 65.9653 12.8738 65.9653 8.30744C65.9653 3.74105 68.2769 0.141928 72.443 0.141928ZM72.4677 3.15482C70.346 3.15482 70.2132 6.04276 70.2132 7.84309C70.2132 9.64342 70.1854 13.4971 72.4445 13.4971C74.7036 13.4971 74.7808 10.3916 74.7808 8.49873C74.7808 7.25377 74.7283 5.76507 74.3515 4.58336C74.0272 3.55592 73.3833 3.15636 72.4692 3.15636" fill="#1D1D1B"/>
<path id="path18" d="M84.5629 16.2307H81.6969C81.4097 16.2107 81.1781 15.9793 81.1781 15.697L81.1735 0.934876C81.1982 0.663361 81.436 0.453554 81.7278 0.453554H84.3961C84.6478 0.465895 84.8532 0.635592 84.9103 0.865455V3.12242H84.9628C85.7688 1.10457 86.8976 0.141928 88.8849 0.141928C90.1758 0.141928 91.4358 0.606281 92.2449 1.88055C92.9985 3.06226 92.9985 5.04771 92.9985 6.47471V15.7648C92.966 16.024 92.7267 16.2292 92.4441 16.2292H89.5581C89.2956 16.2091 89.0764 16.0148 89.0486 15.7648V7.74898C89.0486 6.13532 89.2354 3.77344 87.2466 3.77344C86.5455 3.77344 85.9032 4.24242 85.582 4.95515C85.1774 5.85763 85.1249 6.75548 85.1249 7.75052V15.6985C85.1203 15.9932 84.8701 16.2323 84.5629 16.2323" fill="#1D1D1B"/>
<path id="path30" d="M46.2143 9.18061V8.55736C44.1328 8.55736 41.9355 9.00165 41.9355 11.453C41.9355 12.6949 42.5794 13.5356 43.685 13.5356C44.4941 13.5356 45.2198 13.0389 45.6769 12.229C46.2436 11.2339 46.2158 10.2991 46.2158 9.17906M49.1172 16.1906C48.9273 16.3603 48.6524 16.3727 48.4378 16.2601C47.482 15.4671 47.3121 15.0999 46.7856 14.3425C45.2075 15.9515 44.0895 16.4328 42.0405 16.4328C39.6193 16.4328 37.7339 14.941 37.7339 11.9513C37.7339 9.61719 39.0016 8.02821 40.8021 7.25223C42.3647 6.56419 44.5466 6.44386 46.2143 6.25256V5.88077C46.2143 5.19735 46.2668 4.38898 45.8668 3.79813C45.5148 3.26898 44.8431 3.04992 44.2517 3.04992C43.1553 3.04992 42.1748 3.61146 41.9355 4.7762C41.8876 5.03537 41.6961 5.28992 41.4383 5.30226L38.6449 5.00297C38.4102 4.95052 38.1508 4.76077 38.2157 4.39978C38.8596 1.01818 41.9154 0 44.6516 0C46.0521 0 47.8819 0.371791 48.9875 1.43163C50.3881 2.73829 50.2553 4.48154 50.2553 6.37752V10.8591C50.2553 12.2058 50.8142 12.7967 51.3408 13.5248C51.5276 13.784 51.5678 14.0956 51.3331 14.2885C50.7463 14.7775 49.7009 15.6877 49.1265 16.1968L49.1188 16.1891" fill="#1D1D1B"/>
<path id="path30_2" d="M8.48037 9.18061V8.55736C6.39888 8.55736 4.20158 9.00165 4.20158 11.453C4.20158 12.6949 4.84549 13.5356 5.95109 13.5356C6.76021 13.5356 7.48595 13.0389 7.94302 12.229C8.50971 11.2339 8.48192 10.2991 8.48192 9.17906M11.3833 16.1906C11.1934 16.3603 10.9186 16.3727 10.7039 16.2601C9.74811 15.4671 9.57825 15.0999 9.0517 14.3425C7.4736 15.9515 6.35565 16.4328 4.30658 16.4328C1.88539 16.4328 0 14.941 0 11.9513C0 9.61719 1.26773 8.02821 3.06819 7.25223C4.63085 6.56419 6.81271 6.44386 8.48037 6.25256V5.88077C8.48037 5.19735 8.53287 4.38898 8.13294 3.79813C7.78088 3.26898 7.10918 3.04992 6.51778 3.04992C5.42145 3.04992 4.44092 3.61146 4.20158 4.7762C4.15372 5.03537 3.96224 5.28992 3.70437 5.30226L0.911038 5.00297C0.67633 4.95052 0.416916 4.76077 0.481769 4.39978C1.12567 1.01972 4.18151 0 6.91771 0C8.31824 0 10.148 0.371791 11.2536 1.43163C12.6542 2.73829 12.5214 4.48154 12.5214 6.37752V10.8591C12.5214 12.2058 13.0803 12.7967 13.6069 13.5248C13.7937 13.784 13.8339 14.0956 13.5992 14.2885C13.0124 14.7775 11.967 15.6877 11.3926 16.1968L11.3849 16.1891" fill="#1D1D1B"/>
</g>
<defs>
<clipPath id="clip0_0_4">
<rect width="93" height="28" fill="white"/>
</clipPath>
</defs>
</svg>
